<svg width="1013" height="250" viewBox="0 0 1013 250" fill="none" xmlns="http://www.w3.org/2000/svg">
<path d="M352.532 108.78C352.092 106.14 351.138 103.647 349.672 101.3C346.885 96.46 341.385 94.04 333.172 94.04C328.772 94.04 325.398 94.5533 323.052 95.58C319.972 96.7533 317.625 98.44 316.012 100.64C314.545 102.84 313.812 105.26 313.812 107.9C313.812 111.127 314.985 114.06 317.332 116.7C319.825 119.487 323.858 120.953 329.432 121.1C339.258 121.54 347.178 122.713 353.192 124.62C359.352 126.527 364.045 129.827 367.272 134.52C370.645 139.213 372.332 145.813 372.332 154.32C372.332 162.973 369.032 170.453 362.432 176.76C359.205 179.84 355.392 182.333 350.992 184.24C346.738 186.147 342.265 187.1 337.572 187.1H334.272C322.538 187.1 313.078 183.727 305.892 176.98C300.025 171.553 296.358 163.927 294.892 154.1H314.472C315.205 157.62 316.672 160.48 318.872 162.68C322.245 165.907 326.938 167.52 332.952 167.52C334.565 167.52 335.738 167.447 336.472 167.3C341.605 167.007 345.638 165.613 348.572 163.12C351.505 160.48 352.972 157.253 352.972 153.44C352.972 148.16 351.358 144.713 348.132 143.1C344.905 141.487 338.672 140.68 329.432 140.68C317.845 140.68 308.972 137.013 302.812 129.68C297.825 124.107 295.332 117.067 295.332 108.56C295.332 106.653 295.405 105.187 295.552 104.16C296.725 94.6267 300.612 87.3667 307.212 82.38C313.958 77.2467 322.832 74.68 333.832 74.68C341.898 74.68 348.938 76.44 354.952 79.96C359.205 82.6 362.872 86.2667 365.952 90.96C368.885 95.6533 370.792 101.52 371.672 108.56L371.232 108.78H352.532ZM406.676 139.36C406.676 142.88 407.923 146.547 410.416 150.36C413.056 154.173 416.063 157.4 419.436 160.04C425.596 164.88 432.783 167.3 440.996 167.3C454.049 167.3 464.683 160.993 472.896 148.38L489.616 158.28C483.896 167.52 476.856 174.633 468.496 179.62C460.136 184.607 450.969 187.1 440.996 187.1C433.516 187.1 426.403 185.707 419.656 182.92C412.909 179.987 406.969 175.953 401.836 170.82C396.703 165.687 392.669 159.747 389.736 153C386.949 146.253 385.556 139.14 385.556 131.66C385.556 124.18 386.949 117.067 389.736 110.32C392.669 103.427 396.703 97.4133 401.836 92.28C406.823 87.1467 412.689 83.1867 419.436 80.4C426.329 77.6133 433.516 76.22 440.996 76.22C448.476 76.22 455.589 77.6133 462.336 80.4C469.229 83.1867 475.169 87.1467 480.156 92.28C491.009 103.427 496.436 116.333 496.436 131C496.436 133.64 496.216 136.427 495.776 139.36H406.676ZM440.996 94.26C434.983 94.26 429.336 95.58 424.056 98.22C418.776 100.86 414.523 104.38 411.296 108.78C408.216 113.033 406.676 117.58 406.676 122.42H475.316C475.316 117.58 473.703 113.033 470.476 108.78C467.396 104.38 463.216 100.86 457.936 98.22C452.656 95.58 447.009 94.26 440.996 94.26ZM561.772 232.86C553.412 232.86 545.639 230.733 538.452 226.48C531.412 222.227 525.252 216.067 519.972 208L537.132 198.1C540.212 202.94 543.879 206.607 548.132 209.1C552.386 211.74 556.932 213.06 561.772 213.06C569.546 213.06 576.292 210.2 582.012 204.48C584.652 201.84 586.632 198.76 587.952 195.24C589.419 191.72 590.152 187.98 590.152 184.02V176.32C586.779 179.84 582.526 182.7 577.392 184.9C572.259 186.953 567.052 187.98 561.772 187.98C555.319 187.98 549.232 186.807 543.512 184.46C537.792 181.967 532.732 178.52 528.332 174.12C523.786 169.72 520.266 164.66 517.772 158.94C515.279 153.073 514.032 146.913 514.032 140.46V76H533.392V139.14C533.392 144.273 534.639 149.113 537.132 153.66C539.772 158.06 543.219 161.58 547.472 164.22C551.872 166.86 556.639 168.18 561.772 168.18C566.906 168.18 571.672 166.933 576.072 164.44C580.472 161.8 583.919 158.28 586.412 153.88C588.906 149.333 590.152 144.42 590.152 139.14V76H609.512V184.02C609.512 190.62 608.266 196.927 605.772 202.94C603.426 208.953 600.052 214.16 595.652 218.56C591.106 223.107 585.899 226.627 580.032 229.12C574.312 231.613 568.226 232.86 561.772 232.86ZM631.604 186V39.7H649.204V186H631.604ZM760.235 186V169.28C755.541 174.707 750.115 179.033 743.955 182.26C737.795 185.487 731.268 187.1 724.375 187.1C716.748 187.1 709.561 185.707 702.815 182.92C696.215 180.133 690.348 176.173 685.215 171.04C680.081 166.053 676.048 160.187 673.115 153.44C670.328 146.547 668.935 139.36 668.935 131.88C668.935 124.4 670.328 117.287 673.115 110.54C676.048 103.647 680.081 97.6333 685.215 92.5C690.348 87.3667 696.215 83.4067 702.815 80.62C709.561 77.8333 716.748 76.44 724.375 76.44C731.415 76.44 738.015 77.9067 744.175 80.84C750.481 83.7733 755.835 87.88 760.235 93.16V78.64H780.035V186H760.235ZM724.375 96.02C719.535 96.02 714.841 96.9733 710.295 98.88C705.895 100.64 702.081 103.133 698.855 106.36C695.628 109.587 693.061 113.473 691.155 118.02C689.395 122.42 688.515 127.04 688.515 131.88C688.515 136.72 689.395 141.34 691.155 145.74C693.061 150.14 695.628 153.953 698.855 157.18C702.081 160.407 705.895 162.973 710.295 164.88C714.841 166.64 719.535 167.52 724.375 167.52C729.215 167.52 733.835 166.64 738.235 164.88C742.635 162.973 746.448 160.407 749.675 157.18C752.901 153.953 755.395 150.14 757.155 145.74C759.061 141.34 760.015 136.72 760.015 131.88C760.015 127.04 759.061 122.42 757.155 118.02C755.395 113.473 752.901 109.587 749.675 106.36C746.448 103.133 742.635 100.64 738.235 98.88C733.835 96.9733 729.215 96.02 724.375 96.02ZM857.855 187.1C850.961 187.1 844.288 185.487 837.835 182.26C831.528 179.033 826.028 174.633 821.335 169.06V186H801.975V39.92H821.335V91.84C824.561 87.2933 829.328 83.26 835.635 79.74C842.088 76.22 849.495 74.46 857.855 74.46C865.335 74.46 872.521 75.9267 879.415 78.86C886.308 81.7933 892.248 85.8267 897.235 90.96C902.368 96.24 906.328 102.327 909.115 109.22C912.048 115.967 913.515 123.153 913.515 130.78C913.515 138.407 912.048 145.667 909.115 152.56C906.328 159.307 902.368 165.32 897.235 170.6C892.248 175.733 886.308 179.767 879.415 182.7C872.521 185.633 865.335 187.1 857.855 187.1ZM857.855 94.48C853.015 94.48 848.321 95.4333 843.775 97.34C839.375 99.1 835.561 101.667 832.335 105.04C829.108 108.413 826.541 112.373 824.635 116.92C822.728 121.32 821.775 125.94 821.775 130.78C821.775 140.607 825.295 149.187 832.335 156.52C835.561 159.893 839.375 162.533 843.775 164.44C848.321 166.347 853.015 167.3 857.855 167.3C862.695 167.3 867.315 166.347 871.715 164.44C876.115 162.533 879.928 159.893 883.155 156.52C890.195 149.187 893.715 140.607 893.715 130.78C893.715 125.94 892.761 121.32 890.855 116.92C888.948 112.373 886.381 108.413 883.155 105.04C879.928 101.667 876.115 99.1 871.715 97.34C867.315 95.4333 862.695 94.48 857.855 94.48ZM984.387 108.78C983.947 106.14 982.994 103.647 981.527 101.3C978.741 96.46 973.241 94.04 965.027 94.04C960.627 94.04 957.254 94.5533 954.907 95.58C951.827 96.7533 949.481 98.44 947.867 100.64C946.401 102.84 945.667 105.26 945.667 107.9C945.667 111.127 946.841 114.06 949.187 116.7C951.681 119.487 955.714 120.953 961.287 121.1C971.114 121.54 979.034 122.713 985.047 124.62C991.207 126.527 995.901 129.827 999.127 134.52C1002.5 139.213 1004.19 145.813 1004.19 154.32C1004.19 162.973 1000.89 170.453 994.287 176.76C991.061 179.84 987.247 182.333 982.847 184.24C978.594 186.147 974.121 187.1 969.427 187.1H966.127C954.394 187.1 944.934 183.727 937.747 176.98C931.881 171.553 928.214 163.927 926.747 154.1H946.327C947.061 157.62 948.527 160.48 950.727 162.68C954.101 165.907 958.794 167.52 964.807 167.52C966.421 167.52 967.594 167.447 968.327 167.3C973.461 167.007 977.494 165.613 980.427 163.12C983.361 160.48 984.827 157.253 984.827 153.44C984.827 148.16 983.214 144.713 979.987 143.1C976.761 141.487 970.527 140.68 961.287 140.68C949.701 140.68 940.827 137.013 934.667 129.68C929.681 124.107 927.187 117.067 927.187 108.56C927.187 106.653 927.261 105.187 927.407 104.16C928.581 94.6267 932.467 87.3667 939.067 82.38C945.814 77.2467 954.687 74.68 965.687 74.68C973.754 74.68 980.794 76.44 986.807 79.96C991.061 82.6 994.727 86.2667 997.807 90.96C1000.74 95.6533 1002.65 101.52 1003.53 108.56L1003.09 108.78H984.387Z" fill="black"/>
<g clip-path="url(#clip0)">
<path d="M225.168 29.728L127.105 0.309082C125.732 -0.103027 124.269 -0.103027 122.896 0.309082L24.832 29.728C21.7339 30.6572 19.6128 33.5088 19.6128 36.7432V144.612C19.6128 158.643 25.2925 173.005 36.4941 187.3C45.0493 198.218 56.8862 209.182 71.6743 219.886C96.5166 237.869 120.979 248.9 122.007 249.36C122.959 249.787 123.98 250 125 250C126.021 250 127.042 249.787 127.994 249.36C129.022 248.9 153.484 237.869 178.327 219.886C193.114 209.182 204.95 198.218 213.506 187.3C224.708 173.005 230.387 158.643 230.387 144.612V36.7432C230.387 33.5088 228.266 30.6572 225.168 29.728Z" fill="black"/>
<path d="M225.168 29.728L127.105 0.309082C126.418 0.103027 125.709 0 125 0V250H125C126.021 250 127.042 249.787 127.994 249.36C129.022 248.9 153.484 237.869 178.327 219.886C193.114 209.182 204.95 198.218 213.506 187.3C224.708 173.005 230.387 158.643 230.387 144.612V36.7432C230.387 33.5088 228.266 30.6572 225.168 29.728Z" fill="black"/>
<path d="M171.063 105.552C167.26 96.5783 160.919 88.948 152.94 83.5527C144.964 78.1574 135.331 74.9986 125 75C118.114 74.9996 111.534 76.4023 105.553 78.9371C96.5789 82.7402 88.9484 89.0807 83.5529 97.0592C78.1576 105.035 74.9986 114.669 75 125C74.9996 131.886 76.4025 138.466 78.9373 144.448C82.7402 153.422 89.0813 161.052 97.0596 166.447C105.036 171.843 114.669 175.001 125 175C131.885 175 138.466 173.598 144.447 171.063C153.421 167.26 161.052 160.919 166.447 152.941C171.843 144.965 175.001 135.331 175 125C175 118.114 173.597 111.534 171.063 105.552ZM164.924 141.847C161.633 149.617 156.127 156.246 149.206 160.924C142.284 165.603 133.968 168.332 125 168.333C119.02 168.333 113.335 167.119 108.154 164.924C100.384 161.633 93.7545 156.127 89.0762 149.206C84.3971 142.284 81.668 133.968 81.6666 125C81.667 119.02 82.8813 113.334 85.0756 108.153C88.3668 100.383 93.8734 93.7537 100.794 89.0756C107.716 84.3971 116.032 81.668 125 81.6666C130.98 81.667 136.666 82.8811 141.847 85.0756C149.616 88.3666 156.246 93.8732 160.924 100.793C165.603 107.716 168.332 116.032 168.333 125C168.333 130.98 167.119 136.666 164.924 141.847Z" fill="white"/>
<path d="M145.756 104.243C144.483 102.97 142.418 102.97 141.144 104.243L104.244 141.144C102.97 142.418 102.97 144.483 104.244 145.756C105.517 147.03 107.582 147.03 108.856 145.756L145.757 108.856C147.03 107.582 147.03 105.517 145.756 104.243Z" fill="white"/>
<path d="M122.826 104.344H115.215V96.7332C115.215 94.932 113.755 93.4717 111.954 93.4717C110.153 93.4717 108.692 94.932 108.692 96.7332V104.344H101.082C99.2807 104.344 97.8203 105.804 97.8203 107.605C97.8203 109.406 99.2807 110.867 101.082 110.867H108.692V118.477C108.692 120.278 110.153 121.738 111.954 121.738C113.755 121.738 115.215 120.278 115.215 118.477V110.867H122.826C124.627 110.867 126.087 109.406 126.087 107.605C126.087 105.804 124.627 104.344 122.826 104.344Z" fill="white"/>
<path d="M151.093 139.134H129.349C127.548 139.134 126.087 140.594 126.087 142.395C126.087 144.196 127.548 145.657 129.349 145.657H151.093C152.894 145.657 154.354 144.196 154.354 142.395C154.354 140.594 152.894 139.134 151.093 139.134Z" fill="white"/>
<line x1="103.131" y1="145.213" x2="145.557" y2="102.786" stroke="black" stroke-width="10"/>
<g clip-path="url(#clip1)">
<path d="M138.569 119.614L111.175 147.008C109.152 149.031 105.86 149.031 103.836 147.008C101.847 145.019 101.783 141.722 103.696 139.809L109.077 134.429C109.214 134.292 109.292 134.104 109.292 133.91C109.292 133.505 108.964 133.178 108.559 133.178C108.351 133.178 108.164 133.265 108.031 133.404L102.66 138.773C101.462 139.971 100.813 141.602 100.834 143.365C100.854 145.135 101.553 146.797 102.8 148.044C104.098 149.341 105.802 149.99 107.506 149.99C109.21 149.99 110.914 149.341 112.211 148.044L139.605 120.65C139.891 120.364 139.891 119.9 139.605 119.614C139.319 119.328 138.855 119.328 138.569 119.614V119.614Z" fill="white"/>
<path d="M130.67 119.138L126.901 122.907C126.615 123.193 126.615 123.657 126.901 123.943C127.044 124.086 127.232 124.157 127.419 124.157C127.607 124.157 127.794 124.086 127.937 123.943L131.706 120.174C131.992 119.888 131.992 119.424 131.706 119.138C131.42 118.852 130.956 118.852 130.67 119.138Z" fill="white"/>
<path d="M124.668 125.14L123.691 126.117C123.405 126.403 123.405 126.867 123.691 127.153C123.834 127.296 124.022 127.368 124.209 127.368C124.396 127.368 124.584 127.296 124.727 127.153L125.704 126.176C125.99 125.89 125.99 125.426 125.704 125.14C125.418 124.854 124.954 124.854 124.668 125.14V125.14Z" fill="white"/>
<path d="M150.619 110.694L140.15 100.225C140.013 100.088 139.827 100.011 139.632 100.011C139.438 100.011 139.252 100.088 139.115 100.225L134.648 104.692C134.362 104.978 134.362 105.442 134.648 105.728L135.177 106.256L110.477 130.957C110.333 131.091 110.243 131.282 110.243 131.494C110.243 131.898 110.572 132.226 110.976 132.226C111.17 132.226 111.357 132.149 111.494 132.012L136.212 107.292L137.55 108.63L135.835 110.345C135.549 110.631 135.549 111.095 135.835 111.381L137.131 112.677L133.631 116.178L131.915 114.462C131.629 114.176 131.165 114.176 130.879 114.462L119.015 126.326C118.878 126.464 118.801 126.65 118.801 126.844C118.801 127.039 118.878 127.225 119.015 127.362L120.73 129.078L110.715 139.094C110.315 138.868 109.862 138.748 109.39 138.748C108.667 138.748 107.988 139.029 107.476 139.54L105.034 141.983C104.523 142.494 104.241 143.174 104.241 143.897C104.241 144.62 104.523 145.299 105.034 145.81C105.545 146.322 106.225 146.603 106.947 146.603C107.67 146.603 108.35 146.322 108.861 145.81L111.304 143.368C111.815 142.857 112.096 142.177 112.096 141.454C112.096 140.982 111.976 140.529 111.75 140.129L121.766 130.114L123.482 131.829C123.625 131.972 123.812 132.043 124 132.043C124.187 132.043 124.374 131.972 124.517 131.829L136.382 119.965C136.519 119.827 136.596 119.641 136.596 119.447C136.596 119.253 136.519 119.066 136.382 118.929L134.666 117.213L138.167 113.713L139.463 115.01C139.606 115.153 139.794 115.224 139.981 115.224C140.169 115.224 140.356 115.153 140.499 115.01L142.214 113.295L143.551 114.632L140.985 117.198C140.699 117.484 140.699 117.947 140.985 118.234C141.271 118.519 141.735 118.519 142.021 118.234L144.587 115.667L145.116 116.196C145.254 116.333 145.44 116.41 145.634 116.41C145.828 116.41 146.015 116.333 146.152 116.196L150.619 111.729C150.905 111.443 150.905 110.98 150.619 110.694V110.694ZM110.268 142.332L107.825 144.775C107.591 145.009 107.279 145.138 106.947 145.138C106.616 145.138 106.304 145.009 106.07 144.775V144.775C105.835 144.54 105.706 144.228 105.706 143.897C105.706 143.565 105.835 143.253 106.07 143.019L108.512 140.576C108.747 140.342 109.058 140.213 109.39 140.213C109.722 140.213 110.033 140.342 110.267 140.576C110.268 140.576 110.268 140.576 110.268 140.576C110.268 140.576 110.268 140.577 110.268 140.577C110.503 140.811 110.632 141.123 110.632 141.454C110.632 141.786 110.503 142.097 110.268 142.332V142.332ZM124 130.275L120.569 126.844L131.397 116.016L133.108 117.727C133.11 117.728 133.111 117.73 133.112 117.732C133.114 117.733 133.116 117.735 133.117 117.736L134.828 119.447L124 130.275ZM142.354 111.362L139.482 108.49L142.913 105.059L145.785 107.931L142.354 111.362ZM139.632 101.779L141.877 104.023L138.446 107.454L136.202 105.21L139.632 101.779ZM139.981 113.456L137.388 110.863L138.585 109.665L141.179 112.259L139.981 113.456ZM145.634 114.642L143.39 112.398L146.821 108.967L149.065 111.212L145.634 114.642Z" fill="white"/>
</g>
</g>
<defs>
<clipPath id="clip0">
<rect width="250" height="250" fill="white"/>
</clipPath>
<clipPath id="clip1">
<rect width="50" height="50" fill="white" transform="translate(100.833 100)"/>
</clipPath>
</defs>
</svg>
